# xmcd
#
# Track frame offsets:
#	150
#	14183
#	28575
#	43048
#	54465
#	67283
#	81920
#	97480
#	120675
#	132803
#	152098
#	167770
#	185843
#	198625
#	211915
#	222195
#
# Disc length: 3139 seconds
#
# Revision: 1
# Processed by: cddbd v1.4PL0 Copyright (c) Steve Scherf et al.
# Submitted via: audiograbber 1.81.02
#
DISCID=fa0c4110
DTITLE=Early Bird - The Best Of Early Bird
DYEAR=1992
DGENRE=Country
TTITLE0=Too Used To Being With You
TTITLE1=Shadow Side Of My Life
TTITLE2=Mother Played The Dobro
TTITLE3=Mamma Tried
TTITLE4=Under Your Spell Again
TTITLE5=The Beginning
TTITLE6=Too Much We Can Stand
TTITLE7=Hey, Mr. D.J.
TTITLE8=I Still Love You So
TTITLE9=Miracles Still Happen Now And Then
TTITLE10=Saturday Night It's Allright
TTITLE11=Sing Me An Old Fashioned Song
TTITLE12=Take Me To Your World
TTITLE13=Sweet Waves
TTITLE14=Just For What I Am
TTITLE15=Whites Waltz
EXTD=
EXTT0=
EXTT1=
EXTT2=
EXTT3=
EXTT4=
EXTT5=
EXTT6=
EXTT7=
EXTT8=
EXTT9=
EXTT10=
EXTT11=
EXTT12=
EXTT13=
EXTT14=
EXTT15=
PLAYORDER=
